<svg width="50" height="50" viewBox="0 0 50 50" fill="none" xmlns="http://www.w3.org/2000/svg">
<path d="M42.3063 29.1273C41.742 29.1096 41.2784 29.5638 41.2382 30.1269C40.6831 37.9028 33.9032 44.07 25.655 44.07C17.04 44.07 10.03 37.355 10.03 29.095C10.03 21.1652 14.6391 14.6473 22.6387 14.146C23.1899 14.1115 23.64 14.5627 23.64 15.115V20.4115C23.64 21.2102 24.5301 21.6866 25.1947 21.2435L38.7269 12.2221C39.3206 11.8262 39.3206 10.9538 38.7269 10.558L25.1947 1.53647C24.5301 1.09343 23.64 1.56982 23.64 2.36852V7.665C23.64 8.21728 23.1914 8.66229 22.6398 8.68978C11.903 9.22484 4.58496 18.3541 4.58496 29.22C4.57996 40.42 13.72 49.5 25 49.5C35.9526 49.5 44.8876 40.9394 45.397 30.1943C45.4226 29.6548 44.9911 29.2116 44.4513 29.1946L42.3063 29.1273Z" fill="#FFE713"/>
</svg>
