<svg width="44" height="44" viewBox="0 0 44 44" fill="none" xmlns="http://www.w3.org/2000/svg">
<g clip-path="url(#clip0_7_96)">
<path d="M21.9999 0.440002C10.0935 0.440002 0.439941 10.0936 0.439941 22C0.439941 33.9064 10.0935 43.56 21.9999 43.56C33.9063 43.56 43.5599 33.9064 43.5599 22C43.5599 10.0936 33.9063 0.440002 21.9999 0.440002ZM21.9999 40.8672C11.5983 40.8672 3.13714 32.4016 3.13714 22C3.13714 11.5984 11.5983 3.1372 21.9999 3.1372C32.4015 3.1372 40.8671 11.5984 40.8671 22C40.8671 32.4016 32.4015 40.8672 21.9999 40.8672ZM27.3899 13.9172H16.6099C15.1227 13.9172 13.9127 15.1228 13.9127 16.6144V27.3944C13.9127 28.8816 15.1183 30.0916 16.6099 30.0916H27.3899C28.8771 30.0916 30.0871 28.886 30.0871 27.3944V16.6144C30.0871 15.1228 28.8771 13.9172 27.3899 13.9172Z" fill="#FFE713"/>
</g>
<defs>
<clipPath id="clip0_7_96">
<rect width="44" height="44" fill="white"/>
</clipPath>
</defs>
</svg>
