<?xml version="1.0" encoding="utf-8"?><svg viewBox="0 0 50 50" xmlns="http://www.w3.org/2000/svg" xmlns:xlink="http://www.w3.org/1999/xlink"><style>:root>svg{display:none}:root>svg:target{display:block}</style><svg viewBox="0 0 42 42" id="play" xmlns="http://www.w3.org/2000/svg"><path fill-rule="evenodd" clip-rule="evenodd" d="M21 42c11.598 0 21-9.402 21-21S32.598 0 21 0 0 9.402 0 21s9.402 21 21 21zm-2.611-10.184l13.238-9.172a2 2 0 000-3.288L18.39 10.184c-1.326-.919-3.139.03-3.139 1.644v18.344c0 1.613 1.813 2.563 3.139 1.644z"/></svg><svg viewBox="0 0 50 50" id="reset" xmlns="http://www.w3.org/2000/svg"><path d="M42.306 29.127c-.564-.017-1.028.437-1.068 1-.555 7.776-7.335 13.943-15.583 13.943-8.615 0-15.625-6.715-15.625-14.975 0-7.93 4.61-14.448 12.609-14.949.55-.035 1.001.417 1.001.969v5.296a1 1 0 001.555.832l13.532-9.02a1 1 0 000-1.665L25.195 1.536a1 1 0 00-1.555.833v5.296c0 .552-.449.997-1 1.025-10.737.535-18.055 9.664-18.055 20.53C4.58 40.42 13.72 49.5 25 49.5c10.953 0 19.888-8.56 20.397-19.306a.964.964 0 00-.946-1l-2.145-.067z"/></svg><svg viewBox="0 0 44 44" id="stop" xmlns="http://www.w3.org/2000/svg"><g clip-path="url(#ca)"><path d="M22 .44C10.094.44.44 10.094.44 22c0 11.906 9.654 21.56 21.56 21.56 11.906 0 21.56-9.654 21.56-21.56C43.56 10.094 33.906.44 22 .44zm0 40.427C11.598 40.867 3.137 32.402 3.137 22 3.137 11.598 11.598 3.137 22 3.137c10.4 0 18.867 8.461 18.867 18.863S32.402 40.867 22 40.867zm5.39-26.95H16.61a2.697 2.697 0 00-2.697 2.697v10.78a2.697 2.697 0 002.697 2.698h10.78a2.697 2.697 0 002.697-2.698v-10.78a2.697 2.697 0 00-2.697-2.697z"/></g><defs><clipPath id="ca"><path d="M0 0h44v44H0z"/></clipPath></defs></svg></svg>